<svg width="1380" height="595" viewBox="0 0 1380 595" fill="none" xmlns="http://www.w3.org/2000/svg">
<g clip-path="url(#clip0_131461_26613)">
<rect width="1380" height="595" fill="white"/>
<path d="M1380 0H0V599H1380V0Z" fill="#FAD6DE"/>
<path fill-rule="evenodd" clip-rule="evenodd" d="M578.964 315.418C582.362 313.806 585.405 311.618 587.949 308.954L587.928 308.869C582.014 293.193 582.427 276.195 589.081 261.247C595.736 246.299 608.149 234.493 623.856 228.17C639.563 221.848 657.418 221.471 673.878 227.115C690.338 232.759 704.201 244.012 712.716 258.64C721.231 273.268 723.778 290.204 719.849 306.087C715.92 321.97 705.805 335.64 691.508 344.386C677.211 353.131 659.778 356.313 642.668 353.299C625.557 350.287 610.019 341.298 599.135 328.119L599.086 328.082C592.831 328.951 580.242 329.763 567.132 323.515C563.813 321.928 560.679 320 557.784 317.768C565.012 319.211 572.448 318.386 578.964 315.418Z" stroke="#E196AA" stroke-width="0.48" stroke-miterlimit="22.926"/>
<path d="M670.722 244.674H684.545V316.796H670.722V244.674ZM615.43 289.75H629.253V316.796H615.43V289.75ZM643.076 267.212H656.899V316.796H643.076V267.212Z" fill="#E196AA"/>
<path fill-rule="evenodd" clip-rule="evenodd" d="M136.364 303.095C134.419 302.084 132.664 300.732 131.186 299.104L131.195 299.052C134.24 289.824 133.694 279.706 129.666 270.708C125.638 261.707 118.422 254.481 109.449 250.465C100.477 246.446 90.4033 245.93 81.2265 249.019C72.0513 252.107 64.4435 258.575 59.9108 267.136C55.3804 275.699 54.2568 285.731 56.7661 295.242C59.2743 304.755 65.2286 313.051 73.4509 318.487C81.6725 323.922 91.5607 326.1 101.153 324.587C110.744 323.074 119.339 317.981 125.232 310.32L125.259 310.299C131.358 311.443 137.617 310.677 143.184 308.105C145.023 307.215 146.754 306.121 148.342 304.84C144.296 305.58 140.089 304.967 136.364 303.095Z" stroke="#E196AA" stroke-width="0.48" stroke-miterlimit="22.926"/>
<path fill-rule="evenodd" clip-rule="evenodd" d="M-105 754.993H105.02L576.95 93.1746H366.937L-105 754.993Z" fill="#B5D0EE"/>
<path fill-rule="evenodd" clip-rule="evenodd" d="M215.07 664.247C215.07 665.459 215.306 666.658 215.764 667.777C216.222 668.896 216.892 669.913 217.738 670.77C218.585 671.627 219.589 672.306 220.694 672.77C221.799 673.234 222.984 673.472 224.18 673.472C225.377 673.472 226.561 673.234 227.666 672.77C228.771 672.306 229.776 671.627 230.622 670.77C231.468 669.913 232.139 668.896 232.597 667.777C233.055 666.658 233.29 665.459 233.29 664.247V280.661H450.685V455.069C450.685 457.516 451.645 459.862 453.354 461.592C455.063 463.323 457.381 464.294 459.796 464.294C462.212 464.294 464.53 463.323 466.239 461.592C467.948 459.862 468.907 457.516 468.907 455.069V271.434C468.907 270.223 468.672 269.023 468.214 267.904C467.756 266.784 467.084 265.766 466.239 264.911C465.393 264.054 464.388 263.374 463.281 262.911C462.176 262.447 460.992 262.209 459.796 262.209H224.18C221.763 262.209 219.447 263.181 217.738 264.911C216.03 266.642 215.07 268.987 215.07 271.434V664.247Z" fill="#F6CAD4"/>
<path fill-rule="evenodd" clip-rule="evenodd" d="M348.432 664.247C348.432 666.694 349.392 669.04 351.101 670.77C352.81 672.501 355.126 673.472 357.543 673.472C359.959 673.472 362.276 672.501 363.984 670.77C365.693 669.04 366.653 666.694 366.653 664.247V596.494C366.653 594.046 365.693 591.701 363.984 589.97C362.276 588.24 359.959 587.268 357.543 587.268H326.435C324.018 587.268 321.7 588.24 319.993 589.97C318.284 591.701 317.323 594.046 317.323 596.494V664.247C317.357 666.671 318.331 668.985 320.036 670.688C321.742 672.39 324.04 673.345 326.433 673.345C328.828 673.345 331.127 672.39 332.832 670.688C334.537 668.985 335.511 666.671 335.545 664.247V605.719H348.432V664.247Z" fill="#F6CAD4"/>
<path fill-rule="evenodd" clip-rule="evenodd" d="M588.572 561.429C588.572 570.608 584.971 579.412 578.562 585.902C572.152 592.392 563.461 596.039 554.396 596.041C549.298 595.999 544.247 595.038 539.482 593.206C535.216 591.668 531.302 589.268 527.982 586.151C526.932 585.112 525.651 584.346 524.246 583.917C522.841 583.487 521.355 583.407 519.914 583.684C518.471 583.96 517.118 584.586 515.966 585.507C514.814 586.428 513.898 587.616 513.298 588.972C510.687 594.132 506.843 598.55 502.116 601.823C497.677 604.676 492.508 606.143 487.252 606.045C481.324 606.035 475.511 604.392 470.437 601.29C465.362 598.188 461.219 593.744 458.452 588.438C455.683 583.131 454.394 577.161 454.723 571.167C455.054 565.175 456.991 559.385 460.324 554.423C464.074 548.91 469.38 544.672 475.549 542.265C476.972 541.706 478.233 540.795 479.216 539.612C480.201 538.431 480.873 537.017 481.175 535.502C481.475 533.986 481.394 532.417 480.939 530.944C480.485 529.468 479.669 528.132 478.569 527.061C476.318 524.864 474.526 522.233 473.297 519.324C471.801 515.756 471.202 511.867 471.553 508.008C471.905 504.149 473.197 500.437 475.313 497.207C477.43 493.977 480.303 491.33 483.68 489.501C487.054 487.672 490.826 486.721 494.653 486.73C495.255 486.73 495.679 486.761 496.103 486.79L496.344 486.808C498.145 486.93 499.941 486.504 501.503 485.589C503.066 484.674 504.324 483.307 505.116 481.666C505.911 480.025 506.204 478.181 505.959 476.369C505.715 474.559 504.944 472.863 503.744 471.496C502.804 470.208 502.062 468.783 501.542 467.269C500.799 465.09 500.531 462.773 500.763 460.479C500.993 458.186 501.713 455.97 502.876 453.988C504.038 452.005 505.612 450.302 507.49 448.999C509.37 447.696 511.504 446.823 513.75 446.441C515.997 446.059 518.296 446.175 520.492 446.787C522.688 447.396 524.726 448.484 526.463 449.973C528.203 451.463 529.599 453.317 530.557 455.408C531.516 457.5 532.012 459.778 532.012 462.084C532.021 463.01 531.947 463.936 531.791 464.849C531.619 465.801 531.363 466.736 531.027 467.643C530.409 469.32 530.291 471.143 530.682 472.888C531.074 474.635 531.96 476.227 533.234 477.468C534.506 478.711 536.111 479.55 537.848 479.881C539.584 480.214 541.379 480.025 543.012 479.337V479.353C544.139 478.88 545.309 478.524 546.506 478.285C549.188 477.737 551.959 477.801 554.617 478.469C557.273 479.139 559.75 480.396 561.869 482.152C563.987 483.908 565.694 486.117 566.866 488.622C568.039 491.128 568.649 493.864 568.649 496.637C568.661 499.587 567.978 502.496 566.656 505.124C565.306 507.791 563.351 510.099 560.953 511.856C559.567 512.866 558.493 514.249 557.849 515.848C557.204 517.448 557.019 519.2 557.314 520.901C557.608 522.603 558.369 524.186 559.511 525.469C560.652 526.751 562.129 527.683 563.77 528.156V528.181C570.929 530.254 577.227 534.63 581.714 540.647C586.179 546.634 588.585 553.936 588.569 561.438L588.572 561.429ZM591.447 598.948C597.068 593.257 601.336 586.342 603.927 578.733C606.518 571.122 607.362 563.014 606.399 555.024C605.434 547.034 602.687 539.37 598.365 532.614C594.042 525.86 588.256 520.188 581.448 516.034C581.936 515.228 582.398 514.396 582.826 513.558C585.694 507.895 587.075 501.581 586.84 495.222C586.605 488.862 584.759 482.67 581.482 477.241C578.204 471.811 573.604 467.326 568.122 464.214C562.64 461.103 556.46 459.471 550.177 459.473H550.141C549.478 450.624 545.454 442.38 538.916 436.473C532.377 430.565 523.831 427.454 515.075 427.79C506.319 428.129 498.031 431.89 491.956 438.286C485.879 444.68 482.488 453.21 482.492 462.084C482.492 464.702 482.794 467.311 483.39 469.859C477.367 471.576 471.81 474.657 467.136 478.867C462.46 483.078 458.791 488.307 456.403 494.165C454.017 500.02 452.975 506.348 453.356 512.673C453.737 518.996 455.532 525.15 458.604 530.669C453.426 534.27 448.946 538.802 445.388 544.044C440.163 551.763 437.117 560.783 436.582 570.126C436.046 579.47 438.041 588.782 442.35 597.063C446.659 605.342 453.118 612.273 461.032 617.109C468.945 621.944 478.012 624.499 487.255 624.497C496.031 624.593 504.64 622.071 512.011 617.248C516.588 614.213 520.627 610.417 523.958 606.023C526.866 607.757 529.915 609.232 533.074 610.432C539.884 613.054 547.1 614.427 554.385 614.491C561.269 614.502 568.086 613.134 574.447 610.466C580.806 607.799 586.583 603.885 591.444 598.948H591.447Z" fill="#F6CAD4"/>
<path fill-rule="evenodd" clip-rule="evenodd" d="M517.362 579.482C519.486 580.64 521.976 580.894 524.285 580.19C526.594 579.488 528.533 577.885 529.676 575.734C530.819 573.583 531.07 571.061 530.375 568.723C529.681 566.385 528.098 564.422 525.974 563.265L493.663 545.704C492.61 545.113 491.451 544.738 490.254 544.603C489.058 544.468 487.847 544.576 486.691 544.92C485.536 545.264 484.459 545.835 483.525 546.603C482.589 547.371 481.814 548.32 481.243 549.394C480.673 550.468 480.319 551.645 480.203 552.858C480.084 554.072 480.206 555.297 480.56 556.463C480.916 557.628 481.495 558.71 482.265 559.647C483.036 560.584 483.983 561.356 485.051 561.92L517.362 579.482Z" fill="#F6CAD4"/>
<path fill-rule="evenodd" clip-rule="evenodd" d="M549.01 511.258C550.026 510.619 550.906 509.784 551.602 508.801C552.297 507.817 552.795 506.705 553.066 505.526C553.337 504.349 553.377 503.128 553.183 501.934C552.989 500.74 552.563 499.596 551.932 498.57C551.301 497.542 550.477 496.65 549.506 495.944C548.536 495.24 547.436 494.736 546.274 494.461C545.109 494.186 543.904 494.146 542.725 494.343C541.546 494.541 540.418 494.971 539.403 495.609L521.369 506.976L501.143 495.442C500.105 494.83 498.957 494.434 497.765 494.275C496.574 494.117 495.365 494.201 494.206 494.521C493.047 494.84 491.961 495.389 491.014 496.137C490.068 496.885 489.275 497.815 488.686 498.875C488.096 499.934 487.721 501.103 487.581 502.311C487.442 503.519 487.539 504.743 487.872 505.912C488.202 507.082 488.759 508.172 489.51 509.121C490.262 510.071 491.192 510.859 492.247 511.441L516.528 525.305C517.984 526.302 519.694 526.851 521.452 526.886C523.209 526.919 524.938 526.436 526.431 525.496L549.01 511.258Z" fill="#F6CAD4"/>
<path fill-rule="evenodd" clip-rule="evenodd" d="M518.038 562.948C515.86 563.943 514.156 565.767 513.296 568.025C512.437 570.283 512.491 572.792 513.445 575.01C514.399 577.228 516.18 578.977 518.397 579.875C520.616 580.774 523.094 580.753 525.297 579.814L560.084 564.347C562.262 563.352 563.966 561.529 564.825 559.271C565.685 557.013 565.631 554.503 564.677 552.285C563.721 550.067 561.942 548.319 559.725 547.42C557.506 546.521 555.028 546.543 552.825 547.482L518.038 562.948Z" fill="#F6CAD4"/>
<path fill-rule="evenodd" clip-rule="evenodd" d="M284.376 271.434C284.358 272.657 284.582 273.871 285.031 275.004C285.482 276.14 286.151 277.171 286.999 278.043C287.845 278.913 288.857 279.604 289.969 280.075C291.083 280.549 292.28 280.791 293.486 280.791C294.693 280.791 295.89 280.549 297.002 280.075C298.116 279.604 299.126 278.913 299.974 278.043C300.822 277.171 301.491 276.14 301.942 275.004C302.391 273.871 302.614 272.657 302.598 271.434V237.65H381.38V271.434C381.38 273.882 382.339 276.227 384.048 277.958C385.757 279.688 388.073 280.66 390.49 280.66C392.907 280.66 395.223 279.688 396.932 277.958C398.641 276.227 399.6 273.882 399.6 271.434V228.425C399.6 225.978 398.641 223.632 396.932 221.902C395.223 220.172 392.907 219.2 390.49 219.2H293.488C292.291 219.2 291.107 219.438 290 219.902C288.895 220.364 287.89 221.045 287.044 221.902C286.198 222.757 285.527 223.774 285.069 224.895C284.611 226.014 284.376 227.213 284.376 228.425V271.434Z" fill="#F6CAD4"/>
<path fill-rule="evenodd" clip-rule="evenodd" d="M332.879 228.425C332.879 230.872 333.838 233.218 335.547 234.948C337.256 236.679 339.574 237.652 341.989 237.652C344.406 237.652 346.724 236.679 348.432 234.948C350.141 233.218 351.101 230.872 351.101 228.425V190.98C351.101 188.533 350.141 186.187 348.432 184.457C346.724 182.727 344.406 181.754 341.989 181.754C339.574 181.754 337.256 182.727 335.547 184.457C333.838 186.187 332.879 188.533 332.879 190.98V228.425Z" fill="#F6CAD4"/>
<path fill-rule="evenodd" clip-rule="evenodd" d="M411.03 416.689H398.141V397.22H411.03V416.689ZM389.031 435.139H420.14C422.557 435.139 424.873 434.168 426.582 432.437C428.291 430.707 429.25 428.361 429.25 425.914V387.992C429.25 385.545 428.291 383.2 426.582 381.469C424.873 379.739 422.557 378.767 420.14 378.767H389.031C386.614 378.767 384.298 379.739 382.589 381.469C380.88 383.2 379.921 385.545 379.921 387.992V425.914C379.921 428.361 380.88 430.707 382.589 432.437C384.298 434.168 386.614 435.139 389.031 435.139Z" fill="#F6CAD4"/>
<path fill-rule="evenodd" clip-rule="evenodd" d="M348.432 416.689H335.543V397.22H348.432V416.689ZM326.433 435.139H357.552C359.968 435.139 362.285 434.168 363.993 432.437C365.702 430.707 366.662 428.361 366.662 425.914V387.992C366.662 385.545 365.702 383.2 363.993 381.469C362.285 379.739 359.968 378.767 357.552 378.767H326.433C324.016 378.767 321.7 379.739 319.991 381.469C318.283 383.2 317.323 385.545 317.323 387.992V425.914C317.323 428.361 318.283 430.707 319.991 432.437C321.7 434.168 324.016 435.139 326.433 435.139Z" fill="#F6CAD4"/>
<path fill-rule="evenodd" clip-rule="evenodd" d="M285.836 416.689H272.946V397.22H285.836V416.689ZM263.835 435.139H294.947C297.363 435.139 299.68 434.168 301.388 432.437C303.097 430.707 304.059 428.361 304.059 425.914V387.992C304.059 385.545 303.097 383.2 301.388 381.469C299.68 379.739 297.363 378.767 294.947 378.767H263.835C261.419 378.767 259.103 379.739 257.394 381.469C255.685 383.2 254.725 385.545 254.725 387.992V425.914C254.725 428.361 255.685 430.707 257.394 432.437C259.103 434.168 261.419 435.139 263.835 435.139Z" fill="#F6CAD4"/>
<path fill-rule="evenodd" clip-rule="evenodd" d="M411.03 485.476H398.141V466.007H411.03V485.476ZM389.031 503.927H420.14C422.557 503.927 424.873 502.955 426.582 501.224C428.291 499.494 429.25 497.149 429.25 494.701V456.772C429.25 454.325 428.291 451.98 426.582 450.249C424.873 448.519 422.557 447.547 420.14 447.547H389.031C386.614 447.547 384.298 448.519 382.589 450.249C380.88 451.98 379.921 454.325 379.921 456.772V494.701C379.921 497.149 380.88 499.494 382.589 501.224C384.298 502.955 386.614 503.927 389.031 503.927Z" fill="#F6CAD4"/>
<path fill-rule="evenodd" clip-rule="evenodd" d="M348.432 485.476H335.543V466.007H348.432V485.476ZM326.433 503.927H357.552C359.968 503.927 362.285 502.955 363.993 501.224C365.702 499.494 366.662 497.149 366.662 494.701V456.772C366.662 454.325 365.702 451.98 363.993 450.249C362.285 448.519 359.968 447.547 357.552 447.547H326.433C324.016 447.547 321.7 448.519 319.991 450.249C318.283 451.98 317.323 454.325 317.323 456.772V494.701C317.323 497.149 318.283 499.494 319.991 501.224C321.7 502.955 324.016 503.927 326.433 503.927Z" fill="#F6CAD4"/>
<path fill-rule="evenodd" clip-rule="evenodd" d="M285.836 485.476H272.946V466.007H285.836V485.476ZM263.835 503.927H294.947C297.363 503.927 299.68 502.955 301.388 501.224C303.097 499.494 304.059 497.149 304.059 494.701V456.772C304.059 454.325 303.097 451.98 301.388 450.249C299.68 448.519 297.363 447.547 294.947 447.547H263.835C261.419 447.547 259.103 448.519 257.394 450.249C255.685 451.98 254.725 454.325 254.725 456.772V494.701C254.725 497.149 255.685 499.494 257.394 501.224C259.103 502.955 261.419 503.927 263.835 503.927Z" fill="#F6CAD4"/>
<path fill-rule="evenodd" clip-rule="evenodd" d="M411.03 554.252H398.141V534.783H411.03V554.252ZM389.031 572.703H420.14C422.557 572.703 424.873 571.731 426.582 570.001C428.291 568.27 429.25 565.925 429.25 563.478V525.549C429.25 523.101 428.291 520.756 426.582 519.025C424.873 517.295 422.557 516.323 420.14 516.323H389.031C386.614 516.323 384.298 517.295 382.589 519.025C380.88 520.756 379.921 523.101 379.921 525.549V563.478C379.921 565.925 380.88 568.27 382.589 570.001C384.298 571.731 386.614 572.703 389.031 572.703Z" fill="#F6CAD4"/>
<path fill-rule="evenodd" clip-rule="evenodd" d="M348.432 554.252H335.543V534.783H348.432V554.252ZM326.433 572.703H357.552C359.968 572.703 362.285 571.731 363.993 570.001C365.702 568.27 366.662 565.925 366.662 563.478V525.549C366.662 523.101 365.702 520.756 363.993 519.025C362.285 517.295 359.968 516.323 357.552 516.323H326.433C324.016 516.323 321.7 517.295 319.991 519.025C318.283 520.756 317.323 523.101 317.323 525.549V563.478C317.323 565.925 318.283 568.27 319.991 570.001C321.7 571.731 324.016 572.703 326.433 572.703Z" fill="#F6CAD4"/>
<path fill-rule="evenodd" clip-rule="evenodd" d="M285.836 554.252H272.946V534.783H285.836V554.252ZM263.835 572.703H294.947C297.363 572.703 299.68 571.731 301.388 570.001C303.097 568.27 304.059 565.925 304.059 563.478V525.549C304.059 523.101 303.097 520.756 301.388 519.025C299.68 517.295 297.363 516.323 294.947 516.323H263.835C261.419 516.323 259.103 517.295 257.394 519.025C255.685 520.756 254.725 523.101 254.725 525.549V563.478C254.725 565.925 255.685 568.27 257.394 570.001C259.103 571.731 261.419 572.703 263.835 572.703Z" fill="#F6CAD4"/>
<path fill-rule="evenodd" clip-rule="evenodd" d="M411.03 347.907H398.141V328.438H411.03V347.907ZM389.031 366.358H420.14C422.557 366.358 424.873 365.386 426.582 363.656C428.291 361.925 429.25 359.58 429.25 357.133V319.205C429.25 316.758 428.291 314.413 426.582 312.682C424.873 310.952 422.557 309.98 420.14 309.98H389.031C386.614 309.98 384.298 310.952 382.589 312.682C380.88 314.413 379.921 316.758 379.921 319.205V357.133C379.921 359.58 380.88 361.925 382.589 363.656C384.298 365.386 386.614 366.358 389.031 366.358Z" fill="#F6CAD4"/>
<path fill-rule="evenodd" clip-rule="evenodd" d="M348.432 347.907H335.543V328.438H348.432V347.907ZM326.433 366.358H357.552C359.968 366.358 362.285 365.386 363.993 363.656C365.702 361.925 366.662 359.58 366.662 357.133V319.205C366.662 316.758 365.702 314.413 363.993 312.682C362.285 310.952 359.968 309.98 357.552 309.98H326.433C324.016 309.98 321.7 310.952 319.991 312.682C318.283 314.413 317.323 316.758 317.323 319.205V357.133C317.323 359.58 318.283 361.925 319.991 363.656C321.7 365.386 324.016 366.358 326.433 366.358Z" fill="#F6CAD4"/>
<path fill-rule="evenodd" clip-rule="evenodd" d="M285.836 347.907H272.946V328.438H285.836V347.907ZM263.835 366.358H294.947C297.363 366.358 299.68 365.386 301.388 363.656C303.097 361.925 304.059 359.58 304.059 357.133V319.205C304.059 316.758 303.097 314.413 301.388 312.682C299.68 310.952 297.363 309.98 294.947 309.98H263.835C261.419 309.98 259.103 310.952 257.394 312.682C255.685 314.413 254.725 316.758 254.725 319.205V357.133C254.725 359.58 255.685 361.925 257.394 363.656C259.103 365.386 261.419 366.358 263.835 366.358Z" fill="#F6CAD4"/>
<path fill-rule="evenodd" clip-rule="evenodd" d="M223.634 381.073C226.028 381.038 228.313 380.052 229.995 378.325C231.675 376.598 232.618 374.271 232.618 371.847C232.618 369.422 231.675 367.095 229.995 365.368C228.313 363.641 226.028 362.655 223.634 362.62H114.661C112.244 362.62 109.928 363.592 108.219 365.322C106.51 367.053 105.551 369.398 105.551 371.846V664.251C105.551 666.698 106.51 669.044 108.219 670.774C109.928 672.504 112.244 673.476 114.661 673.476C117.078 673.476 119.394 672.504 121.103 670.774C122.811 669.044 123.771 666.698 123.771 664.251V381.073H223.634Z" fill="#F6CAD4"/>
<path fill-rule="evenodd" clip-rule="evenodd" d="M190.6 406.268C193.017 406.268 195.333 407.24 197.042 408.97C198.751 410.701 199.711 413.046 199.711 415.494C199.711 417.941 198.751 420.286 197.042 422.017C195.333 423.747 193.017 424.719 190.6 424.719H187.12C184.703 424.719 182.387 423.747 180.678 422.017C178.969 420.286 178.01 417.941 178.01 415.494C178.01 413.046 178.969 410.701 180.678 408.97C182.387 407.24 184.703 406.268 187.12 406.268H190.6ZM147.702 424.719C145.285 424.719 142.969 423.747 141.26 422.017C139.551 420.286 138.592 417.941 138.592 415.494C138.592 413.046 139.551 410.701 141.26 408.97C142.969 407.24 145.285 406.268 147.702 406.268H149.709C152.126 406.268 154.442 407.24 156.151 408.97C157.859 410.701 158.819 413.046 158.819 415.494C158.819 417.941 157.859 420.286 156.151 422.017C154.442 423.747 152.126 424.719 149.709 424.719H147.702Z" fill="#F6CAD4"/>
<path fill-rule="evenodd" clip-rule="evenodd" d="M190.6 436.937C193.017 436.937 195.333 437.909 197.042 439.639C198.751 441.37 199.71 443.717 199.71 446.164C199.71 448.61 198.751 450.957 197.042 452.687C195.333 454.418 193.017 455.389 190.6 455.389H187.12C184.703 455.389 182.385 454.418 180.678 452.687C178.969 450.957 178.008 448.61 178.008 446.164C178.008 443.717 178.969 441.37 180.678 439.639C182.385 437.909 184.703 436.937 187.12 436.937H190.6ZM147.702 455.389C145.285 455.389 142.967 454.418 141.26 452.687C139.551 450.957 138.59 448.61 138.59 446.164C138.59 443.717 139.551 441.37 141.26 439.639C142.967 437.909 145.285 436.937 147.702 436.937H149.709C152.126 436.937 154.442 437.909 156.151 439.639C157.859 441.37 158.819 443.717 158.819 446.164C158.819 448.61 157.859 450.957 156.151 452.687C154.442 454.418 152.126 455.389 149.709 455.389H147.702Z" fill="#F6CAD4"/>
<path fill-rule="evenodd" clip-rule="evenodd" d="M190.6 467.602C193.017 467.602 195.333 468.574 197.042 470.304C198.751 472.035 199.71 474.382 199.71 476.828C199.71 479.275 198.751 481.622 197.042 483.353C195.333 485.083 193.017 486.055 190.6 486.055H187.12C184.703 486.055 182.385 485.083 180.678 483.353C178.969 481.622 178.008 479.275 178.008 476.828C178.008 474.382 178.969 472.035 180.678 470.304C182.385 468.574 184.703 467.602 187.12 467.602H190.6ZM147.702 486.055C145.285 486.055 142.967 485.083 141.26 483.353C139.551 481.622 138.59 479.275 138.59 476.828C138.59 474.382 139.551 472.035 141.26 470.304C142.967 468.574 145.285 467.602 147.702 467.602H149.709C152.126 467.602 154.442 468.574 156.151 470.304C157.859 472.035 158.819 474.382 158.819 476.828C158.819 479.275 157.859 481.622 156.151 483.353C154.442 485.083 152.126 486.055 149.709 486.055H147.702Z" fill="#F6CAD4"/>
<path fill-rule="evenodd" clip-rule="evenodd" d="M190.6 498.277C193.017 498.277 195.333 499.248 197.042 500.979C198.751 502.709 199.711 505.055 199.711 507.502C199.711 509.949 198.751 512.295 197.042 514.025C195.333 515.756 193.017 516.727 190.6 516.727H187.12C184.703 516.727 182.387 515.756 180.678 514.025C178.969 512.295 178.01 509.949 178.01 507.502C178.01 505.055 178.969 502.709 180.678 500.979C182.387 499.248 184.703 498.277 187.12 498.277H190.6ZM147.702 516.731C145.285 516.731 142.969 515.759 141.26 514.029C139.551 512.298 138.592 509.953 138.592 507.506C138.592 505.058 139.551 502.713 141.26 500.982C142.969 499.252 145.285 498.28 147.702 498.28H149.709C152.126 498.28 154.442 499.252 156.151 500.982C157.859 502.713 158.819 505.058 158.819 507.506C158.819 509.953 157.859 512.298 156.151 514.029C154.442 515.759 152.126 516.731 149.709 516.731H147.702Z" fill="#F6CAD4"/>
<path fill-rule="evenodd" clip-rule="evenodd" d="M190.6 528.957C193.017 528.957 195.333 529.928 197.042 531.659C198.751 533.389 199.71 535.736 199.71 538.182C199.71 540.629 198.751 542.976 197.042 544.707C195.333 546.437 193.017 547.409 190.6 547.409H187.12C184.703 547.409 182.385 546.437 180.678 544.707C178.969 542.976 178.008 540.629 178.008 538.182C178.008 535.736 178.969 533.389 180.678 531.659C182.385 529.928 184.703 528.957 187.12 528.957H190.6ZM147.702 547.409C145.285 547.409 142.967 546.437 141.26 544.707C139.551 542.976 138.59 540.629 138.59 538.182C138.59 535.736 139.551 533.389 141.26 531.659C142.967 529.928 145.285 528.957 147.702 528.957H149.709C152.126 528.957 154.442 529.928 156.151 531.659C157.859 533.389 158.819 535.736 158.819 538.182C158.819 540.629 157.859 542.976 156.151 544.707C154.442 546.437 152.126 547.409 149.709 547.409H147.702Z" fill="#F6CAD4"/>
<path fill-rule="evenodd" clip-rule="evenodd" d="M290.959 193.357C290.941 194.579 291.166 195.793 291.615 196.927C292.066 198.062 292.735 199.094 293.583 199.965C294.429 200.835 295.441 201.526 296.553 201.998C297.667 202.471 298.862 202.713 300.07 202.713C301.277 202.713 302.474 202.471 303.586 201.998C304.7 201.526 305.71 200.835 306.558 199.965C307.406 199.094 308.075 198.062 308.526 196.927C308.975 195.793 309.198 194.579 309.182 193.357V154.944C309.182 153.732 308.946 152.532 308.488 151.413C308.03 150.293 307.359 149.276 306.513 148.42C305.667 147.563 304.662 146.884 303.555 146.42C302.45 145.956 301.266 145.718 300.07 145.718H190.101C187.684 145.718 185.368 146.69 183.659 148.42C181.95 150.15 180.989 152.497 180.989 154.944V371.837C180.971 373.059 181.195 374.273 181.645 375.407C182.096 376.542 182.764 377.574 183.612 378.445C184.459 379.315 185.47 380.006 186.583 380.478C187.697 380.951 188.891 381.193 190.099 381.193C191.306 381.193 192.503 380.951 193.615 380.478C194.73 380.006 195.739 379.315 196.587 378.445C197.436 377.574 198.104 376.542 198.555 375.407C199.004 374.273 199.227 373.059 199.211 371.837V164.169H290.959V193.357Z" fill="#F6CAD4"/>
<path fill-rule="evenodd" clip-rule="evenodd" d="M235.484 154.944C235.484 157.39 236.444 159.737 238.153 161.467C239.862 163.197 242.178 164.169 244.595 164.169C247.011 164.169 249.328 163.197 251.036 161.467C252.745 159.737 253.705 157.39 253.705 154.944V115.526C253.705 113.08 252.745 110.733 251.036 109.003C249.328 107.273 247.011 106.301 244.595 106.301C242.178 106.301 239.862 107.273 238.153 109.003C236.444 110.733 235.484 113.08 235.484 115.526V154.944Z" fill="#F6CAD4"/>
<path fill-rule="evenodd" clip-rule="evenodd" d="M266.531 190.896C267.727 190.896 268.912 191.135 270.017 191.599C271.122 192.063 272.126 192.742 272.973 193.599C273.819 194.456 274.489 195.473 274.947 196.592C275.406 197.711 275.641 198.91 275.641 200.122C275.641 201.334 275.406 202.533 274.947 203.652C274.489 204.771 273.819 205.788 272.973 206.645C272.126 207.502 271.122 208.181 270.017 208.645C268.912 209.109 267.727 209.347 266.531 209.347H263.05C261.854 209.347 260.669 209.109 259.564 208.645C258.459 208.181 257.455 207.502 256.608 206.645C255.762 205.788 255.092 204.771 254.634 203.652C254.175 202.533 253.94 201.334 253.94 200.122C253.94 198.91 254.175 197.711 254.634 196.592C255.092 195.473 255.762 194.456 256.608 193.599C257.455 192.742 258.459 192.063 259.564 191.599C260.669 191.135 261.854 190.896 263.05 190.896H266.531ZM223.634 209.347C222.437 209.347 221.253 209.109 220.148 208.645C219.043 208.181 218.039 207.502 217.192 206.645C216.346 205.788 215.676 204.771 215.217 203.652C214.759 202.533 214.524 201.334 214.524 200.122C214.524 198.91 214.759 197.711 215.217 196.592C215.676 195.473 216.346 194.456 217.192 193.599C218.039 192.742 219.043 192.063 220.148 191.599C221.253 191.135 222.437 190.896 223.634 190.896H225.639C226.836 190.896 228.02 191.135 229.125 191.599C230.23 192.063 231.235 192.742 232.081 193.599C232.927 194.456 233.598 195.473 234.056 196.592C234.514 197.711 234.749 198.91 234.749 200.122C234.749 201.334 234.514 202.533 234.056 203.652C233.598 204.771 232.927 205.788 232.081 206.645C231.235 207.502 230.23 208.181 229.125 208.645C228.02 209.109 226.836 209.347 225.639 209.347H223.634Z" fill="#F6CAD4"/>
<path fill-rule="evenodd" clip-rule="evenodd" d="M266.531 223.323C267.738 223.307 268.937 223.532 270.056 223.987C271.178 224.444 272.196 225.121 273.057 225.98C273.916 226.837 274.599 227.861 275.064 228.987C275.531 230.116 275.77 231.327 275.77 232.55C275.77 233.771 275.531 234.983 275.064 236.111C274.599 237.237 273.916 238.262 273.057 239.119C272.196 239.978 271.178 240.655 270.056 241.111C268.937 241.566 267.738 241.792 266.531 241.775H263.05C261.843 241.792 260.644 241.566 259.525 241.111C258.404 240.655 257.385 239.978 256.524 239.119C255.665 238.262 254.982 237.237 254.517 236.111C254.05 234.983 253.811 233.771 253.811 232.55C253.811 231.327 254.05 230.116 254.517 228.987C254.982 227.861 255.665 226.837 256.524 225.98C257.385 225.121 258.404 224.444 259.525 223.987C260.644 223.532 261.843 223.307 263.05 223.323H266.531ZM223.634 241.775C222.427 241.792 221.228 241.566 220.109 241.111C218.987 240.655 217.969 239.978 217.108 239.119C216.249 238.262 215.566 237.237 215.101 236.111C214.634 234.983 214.395 233.771 214.395 232.55C214.395 231.327 214.634 230.116 215.101 228.987C215.566 227.861 216.249 226.837 217.108 225.98C217.969 225.121 218.987 224.444 220.109 223.987C221.228 223.532 222.427 223.307 223.634 223.323H225.639C226.847 223.307 228.045 223.532 229.165 223.987C230.286 224.444 231.305 225.121 232.166 225.98C233.025 226.837 233.707 227.861 234.173 228.987C234.64 230.116 234.879 231.327 234.879 232.55C234.879 233.771 234.64 234.983 234.173 236.111C233.707 237.237 233.025 238.262 232.166 239.119C231.305 239.978 230.286 240.655 229.165 241.111C228.045 241.566 226.847 241.792 225.639 241.775H223.634Z" fill="#F6CAD4"/>
<path fill-rule="evenodd" clip-rule="evenodd" d="M190.6 559.627C193.017 559.627 195.333 560.599 197.042 562.329C198.751 564.06 199.711 566.405 199.711 568.853C199.711 571.3 198.751 573.645 197.042 575.376C195.333 577.106 193.017 578.078 190.6 578.078H187.12C184.703 578.078 182.387 577.106 180.678 575.376C178.969 573.645 178.01 571.3 178.01 568.853C178.01 566.405 178.969 564.06 180.678 562.329C182.387 560.599 184.703 559.627 187.12 559.627H190.6ZM147.702 578.078C145.285 578.078 142.969 577.106 141.26 575.376C139.551 573.645 138.592 571.3 138.592 568.853C138.592 566.405 139.551 564.06 141.26 562.329C142.969 560.599 145.285 559.627 147.702 559.627H149.709C152.126 559.627 154.442 560.599 156.151 562.329C157.859 564.06 158.819 566.405 158.819 568.853C158.819 571.3 157.859 573.645 156.151 575.376C154.442 577.106 152.126 578.078 149.709 578.078H147.702Z" fill="#F6CAD4"/>
<path fill-rule="evenodd" clip-rule="evenodd" d="M190.6 590.296C193.017 590.296 195.333 591.268 197.042 592.998C198.751 594.729 199.711 597.074 199.711 599.521C199.711 601.969 198.751 604.314 197.042 606.044C195.333 607.775 193.017 608.747 190.6 608.747H187.12C184.703 608.747 182.387 607.775 180.678 606.044C178.969 604.314 178.01 601.969 178.01 599.521C178.01 597.074 178.969 594.729 180.678 592.998C182.387 591.268 184.703 590.296 187.12 590.296H190.6ZM147.702 608.747C145.285 608.747 142.969 607.775 141.26 606.044C139.551 604.314 138.592 601.969 138.592 599.521C138.592 597.074 139.551 594.729 141.26 592.998C142.969 591.268 145.285 590.296 147.702 590.296H149.709C152.126 590.296 154.442 591.268 156.151 592.998C157.859 594.729 158.819 597.074 158.819 599.521C158.819 601.969 157.859 604.314 156.151 606.044C154.442 607.775 152.126 608.747 149.709 608.747H147.702Z" fill="#F6CAD4"/>
<path fill-rule="evenodd" clip-rule="evenodd" d="M512.516 664.247C512.516 666.694 513.475 669.04 515.184 670.77C516.893 672.501 519.209 673.472 521.626 673.472C524.043 673.472 526.359 672.501 528.068 670.77C529.776 669.04 530.736 666.694 530.736 664.247V487.618C530.736 485.17 529.776 482.825 528.068 481.095C526.359 479.364 524.043 478.392 521.626 478.392C519.209 478.392 516.893 479.364 515.184 481.095C513.475 482.825 512.516 485.17 512.516 487.618V664.247Z" fill="#F6CAD4"/>
<path fill-rule="evenodd" clip-rule="evenodd" d="M294.948 579.843H395.007V613.532L476.717 626.686V641.657H642.983V724.526H16.8857V641.664H294.948V579.843Z" fill="#FAD6DE"/>
<path fill-rule="evenodd" clip-rule="evenodd" d="M495.861 212.069C499.221 207.336 501.717 202.034 503.228 196.41L503.142 196.302C484.542 178.161 473.358 153.603 471.804 127.501C470.252 101.398 478.445 75.6586 494.757 55.3873C511.071 35.1159 534.312 21.7945 559.872 18.0656C585.431 14.3366 611.443 20.4724 632.743 35.2561C654.043 50.0395 669.079 72.3908 674.865 97.8753C680.651 123.36 676.768 150.116 663.983 172.836C651.199 195.556 630.447 212.58 605.846 220.53C581.245 228.481 554.592 226.777 531.173 215.757L531.083 215.739C523.45 221.458 507.44 231.631 485.872 232.099C480.409 232.21 474.954 231.702 469.603 230.589C480.113 227.473 489.331 220.972 495.861 212.069Z" stroke="#E196AA" stroke-width="0.48" stroke-miterlimit="22.926"/>
<path fill-rule="evenodd" clip-rule="evenodd" d="M600.933 163.263C600.507 165.501 599.238 167.484 597.393 168.79C595.548 170.096 593.273 170.623 591.05 170.259C589.949 170.049 588.899 169.619 587.963 168.994C587.029 168.368 586.225 167.56 585.602 166.617C584.978 165.673 584.545 164.614 584.332 163.499C584.118 162.385 584.125 161.239 584.353 160.128L587.384 145.373L593.09 141.033L597.53 149.023L604.897 144.032L600.944 163.263H600.933ZM534.914 150.162C534.484 152.267 534.896 154.459 536.06 156.257C537.225 158.054 539.045 159.311 541.124 159.751L581.981 168.356C580.432 165.775 579.863 162.711 580.378 159.736H580.359L596.629 80.5067L589.183 84.9028L582.497 75.6757L572.733 81.4401L566.048 72.2113L556.284 77.9757L551.186 70.9357L534.914 150.162ZM608.226 139.01C607.77 138.697 607.231 138.53 606.681 138.53C606.129 138.53 605.592 138.697 605.136 139.01L598.886 143.247L594.329 135.045L588.61 139.395L601.217 78.0048C601.316 77.5268 601.276 77.03 601.102 76.5748C600.926 76.1195 600.626 75.7254 600.234 75.4399C599.842 75.1544 599.379 74.9901 598.897 74.9666C598.415 74.9433 597.937 75.062 597.521 75.3082L590.276 79.586L583.591 70.3571L573.827 76.1215L567.143 66.8945L557.378 72.6571L552.417 65.81C552.132 65.417 551.74 65.116 551.291 64.9435C550.84 64.771 550.349 64.7343 549.878 64.8378C549.407 64.9413 548.976 65.1806 548.637 65.5269C548.299 65.8731 548.065 66.3115 547.966 66.7889L531.013 149.345C530.37 152.498 530.988 155.781 532.731 158.473C534.474 161.165 537.201 163.048 540.313 163.707L590.087 174.187L590.315 174.233C593.564 174.791 596.901 174.043 599.614 172.149C602.327 170.255 604.205 167.364 604.846 164.091L609.391 141.899C609.502 141.353 609.45 140.786 609.24 140.271C609.031 139.755 608.674 139.315 608.216 139.006L608.226 139.01Z" fill="#E196AA"/>
<path d="M551.79 102.106L551.14 105.267L583.289 112.051L583.94 108.889L551.79 102.106Z" fill="#E196AA"/>
<path d="M549.984 110.898L549.336 114.06L581.487 120.83L582.136 117.668L549.984 110.898Z" fill="#E196AA"/>
<path d="M548.178 119.692L547.528 122.854L579.678 129.637L580.328 126.476L548.178 119.692Z" fill="#E196AA"/>
<path d="M546.374 128.484L545.724 131.646L577.873 138.43L578.524 135.268L546.374 128.484Z" fill="#E196AA"/>
<path d="M544.567 137.278L543.916 140.44L576.066 147.224L576.716 144.062L544.567 137.278Z" fill="#E196AA"/>
<path d="M542.761 146.072L542.11 149.234L574.26 156.018L574.911 152.856L542.761 146.072Z" fill="#E196AA"/>
<path fill-rule="evenodd" clip-rule="evenodd" d="M556.494 93.4438L557.373 93.6258C558.658 93.8969 559.592 94.5756 559.35 95.7383C559.1 96.9538 557.979 97.1812 556.812 96.9356C556.478 96.8746 556.148 96.7931 555.824 96.6918L556.491 93.442L556.494 93.4438ZM557.429 88.8949C557.803 88.92 558.174 88.9742 558.541 89.0568C559.705 89.3025 560.271 89.9029 560.092 90.7763C559.912 91.6497 559.073 92.05 557.722 91.7589L556.877 91.577L557.429 88.8913V88.8949ZM560.35 98.6114C560.78 98.4009 561.155 98.0927 561.448 97.7107C561.741 97.3288 561.941 96.8836 562.036 96.4097C562.176 95.7458 562.086 95.0529 561.779 94.4488C561.473 93.8445 560.97 93.3661 560.356 93.0945V93.0599C560.92 93.0202 561.456 92.7975 561.885 92.4249C562.314 92.0522 562.613 91.5493 562.737 90.9911C562.837 90.5238 562.805 90.0376 562.647 89.5874C562.489 89.1371 562.208 88.741 561.838 88.4437C560.904 87.6971 559.784 87.2271 558.604 87.0863C557.493 86.8392 556.363 86.6847 555.228 86.6241L552.902 97.9491C553.801 98.2662 554.719 98.5192 555.653 98.706C557.188 99.1957 558.837 99.1637 560.35 98.6114Z" fill="#E196AA"/>
<path d="M565.47 88.6229L563.103 100.153L565.687 100.697L568.054 89.167L565.47 88.6229Z" fill="#E196AA"/>
<path fill-rule="evenodd" clip-rule="evenodd" d="M575.478 100.475L570.952 99.5212L572.871 90.1814L570.287 89.6355L567.919 101.164L575.031 102.662L575.478 100.475Z" fill="#E196AA"/>
<path fill-rule="evenodd" clip-rule="evenodd" d="M584.114 102.292L579.588 101.339L581.507 91.9991L578.923 91.4532L576.555 102.982L583.665 104.48L584.114 102.292Z" fill="#E196AA"/>
<path fill-rule="evenodd" clip-rule="evenodd" d="M557.109 396.942C559.313 396.918 561.501 396.501 563.569 395.709L563.582 395.657C565.018 385.854 570.082 376.904 577.771 370.58C585.458 364.257 595.209 361.022 605.088 361.518C614.965 362.015 624.249 366.205 631.099 373.258C637.946 380.312 641.859 389.713 642.058 399.597C642.257 409.481 638.73 419.125 632.177 426.619C625.624 434.11 616.521 438.9 606.675 440.043C596.831 441.184 586.964 438.59 579.029 432.777C571.096 426.964 565.675 418.358 563.845 408.662L563.831 408.631C557.832 406.853 552.551 403.26 548.711 398.346C547.459 396.685 546.399 394.888 545.549 392.989C548.854 395.534 552.912 396.922 557.109 396.942Z" stroke="#E196AA" stroke-width="0.48" stroke-miterlimit="22.926"/>
<path fill-rule="evenodd" clip-rule="evenodd" d="M617.57 382.357C619.595 382.357 621.559 383.067 623.124 384.368C624.691 385.669 625.762 387.48 626.158 389.492C626.553 391.503 626.248 393.591 625.293 395.4C624.339 397.209 622.794 398.626 620.923 399.412C619.053 400.197 616.97 400.3 615.031 399.705C613.094 399.11 611.42 397.853 610.293 396.148C609.168 394.443 608.661 392.394 608.861 390.354C609.059 388.313 609.95 386.404 611.382 384.954C612.194 384.13 613.159 383.476 614.221 383.031C615.283 382.585 616.42 382.356 617.57 382.357ZM623.02 385.704C621.759 384.426 620.1 383.633 618.327 383.455C616.552 383.278 614.771 383.729 613.288 384.732C611.806 385.736 610.713 387.228 610.196 388.957C609.678 390.684 609.768 392.54 610.451 394.208C611.132 395.877 612.365 397.252 613.937 398.104C615.511 398.956 617.326 399.229 619.074 398.876C620.823 398.523 622.397 397.567 623.529 396.172C624.659 394.776 625.277 393.026 625.277 391.221C625.277 390.196 625.08 389.181 624.691 388.235C624.305 387.287 623.737 386.428 623.02 385.704ZM619.369 385.522L619.604 384.825H615.554L612.979 393.051H616.437L614.945 397.636H617.66L622.332 389.103H618.163L619.367 385.538L619.369 385.522ZM616.938 389.443L618.142 385.88H616.323L614.411 391.99H617.883L616.393 396.574H617.048L620.562 390.154H616.703L616.938 389.456V389.443ZM586.846 407.337V398.759H585.122V397.04L592.57 392.351V387.174H595.922V390.242L601.158 386.946L607.828 391.146L608.381 390.245L601.158 385.696L596.969 388.333V386.109H591.521V391.761L584.073 396.452V399.82H585.798V407.324H583.663V408.385H618.65V407.324H616.517V400.579H615.468V407.329H598.382V398.634H591.523V407.329L586.846 407.337ZM592.57 407.337V399.694H597.33V407.337H592.57ZM602.786 398.641H602.261V404.876H611.391V398.641H602.786ZM610.342 399.703H603.31V403.816H610.342V399.703Z" fill="#E196AA"/>
<path fill-rule="evenodd" clip-rule="evenodd" d="M420.342 302.544C414.356 297.327 410.685 298.269 409.765 298.571C407.648 299.268 407.012 300.864 401.843 310.681C397.492 318.938 396.939 319.702 396.657 321.913C395.83 328.363 399.309 331.193 398.24 333.731C396.935 336.833 389.189 338.708 359.411 332.275C366.313 311.645 376.117 292.132 388.521 274.337C389.599 272.959 398.375 262.078 407.029 263.701C416.266 265.437 424.827 281.34 420.342 302.544Z" fill="#6C0325"/>
<path fill-rule="evenodd" clip-rule="evenodd" d="M401.755 260.874C400.628 264.007 400.454 267.409 401.259 270.643C402.199 274.069 403.965 275.386 403.985 278.667C403.999 281.648 402.556 283.376 401.755 285.185C400.346 288.36 400.05 293.779 405.708 303.477C405.956 302.529 406.391 301.639 406.985 300.866C407.582 300.091 408.324 299.445 409.172 298.968C412.227 297.483 416.705 298.939 419.319 302.971C418.509 292.687 415.557 282.694 410.658 273.647C408.161 269.073 405.176 264.789 401.755 260.874Z" fill="#360213"/>
<path fill-rule="evenodd" clip-rule="evenodd" d="M449.841 247.905C450.779 251.856 451.032 255.943 450.59 259.98C450.373 261.23 450.03 262.424 450.03 262.424C449.65 263.69 449.183 264.929 448.632 266.13C446.116 271.598 443.87 271.876 442.754 276.045C442.192 278.407 442.051 280.852 442.342 283.265C442.734 286.116 443.728 288.193 442.616 289.452C441.985 290.039 441.182 290.405 440.328 290.491C438.682 290.731 437.545 289.932 437.167 290.429C436.934 290.747 437.168 291.355 437.41 291.952C437.757 292.827 438.129 292.994 438.158 293.537C438.138 293.8 438.066 294.057 437.947 294.292C437.829 294.527 437.663 294.734 437.464 294.903C436.291 297.791 431.135 293.993 430.289 292.883C430.469 295.451 433.588 296.357 433.689 298.648C433.59 299.345 433.267 299.991 432.771 300.484C432.273 300.977 431.63 301.292 430.94 301.377C429.985 301.404 429.578 300.673 428.992 300.93C428.334 301.215 428.519 302.285 428.119 303.33C427.572 304.361 426.738 305.207 425.721 305.762C424.703 306.316 423.547 306.556 422.395 306.448C421.492 306.254 420.638 305.873 419.883 305.333C419.129 304.793 418.493 304.103 418.009 303.306C409.837 292.516 405.595 286.919 407.359 281.862C408.45 279.328 409.275 276.682 409.819 273.973C409.999 272.968 410.119 272.131 410.178 271.569C411.109 268.105 410.752 264.413 409.174 261.197C405.841 255.058 397.056 252.018 387.926 254.829C387.768 254.003 384.884 237.621 396.371 227.393C407.535 217.439 422.406 222.117 425.975 223.23C441.715 228.169 448.456 242.778 449.841 247.905Z" fill="#6C0325"/>
<path fill-rule="evenodd" clip-rule="evenodd" d="M438.116 293.287C438.143 293.397 438.158 293.508 438.158 293.62C438.156 293.853 438.084 294.081 437.951 294.27C437.541 294.781 437.011 295.18 436.411 295.429C435.823 295.653 435.195 295.735 434.571 295.671C433.946 295.605 433.346 295.393 432.817 295.052C432.42 294.636 431.939 294.31 431.407 294.099C430.512 293.624 429.772 292.902 429.27 292.014C429.971 292.809 430.891 293.375 431.912 293.635C433.529 293.966 434.415 292.942 436.92 293.124C437.322 293.153 437.721 293.207 438.116 293.287Z" fill="#360213"/>
<path fill-rule="evenodd" clip-rule="evenodd" d="M435.663 286.346C435.5 286.515 435.371 286.715 435.283 286.935C435.195 287.155 435.151 287.392 435.155 287.629C435.211 287.952 435.342 288.258 435.536 288.522C435.73 288.784 435.982 288.999 436.271 289.146C436.957 289.548 437.284 289.281 438.204 289.75C438.416 289.856 438.644 289.927 438.878 289.961C439.004 289.978 439.555 290.061 439.67 289.845C439.766 289.663 439.523 289.308 439.32 289.117C438.389 288.242 436.903 289.368 435.967 288.542C435.771 288.355 435.619 288.125 435.523 287.87C435.428 287.616 435.39 287.341 435.414 287.07C435.439 286.812 435.525 286.564 435.663 286.346Z" fill="#360213"/>
<path fill-rule="evenodd" clip-rule="evenodd" d="M438.023 277.552C438.758 276.713 439.408 275.803 439.967 274.835C440.335 274.293 440.607 273.691 440.772 273.054C440.61 272.959 438.751 276.675 437.538 276.364C437.46 276.347 437.376 276.307 436.679 275.521C435.91 274.65 435.421 274.031 435.421 274.036C435.421 274.042 436.44 275.426 437.207 276.453C437.281 276.558 437.946 277.446 438.023 277.552Z" fill="#893551"/>
<path fill-rule="evenodd" clip-rule="evenodd" d="M436.564 275.124C437.054 275.716 437.601 276.258 438.195 276.742C438.576 277.046 439 277.292 439.453 277.47C440.312 277.777 441.245 277.805 442.12 277.548C441.536 277.89 440.887 278.101 440.215 278.169C439.545 278.236 438.867 278.158 438.228 277.939L438.136 277.894C438.193 278.653 438.089 278.86 437.974 278.904C437.459 279.1 435.998 276.265 435.764 275.823C435.552 275.417 434.652 273.671 434.866 273.525C434.997 273.454 435.516 274.015 436.564 275.124Z" fill="#1B0109"/>
<path fill-rule="evenodd" clip-rule="evenodd" d="M442.792 272.262C443.119 272.346 443.624 271.798 443.823 271.241C443.942 270.681 443.913 270.099 443.739 269.553C443.566 269.007 443.254 268.518 442.835 268.132C440.31 265.705 433.604 268.86 433.653 269.065C435.11 268.796 436.593 268.696 438.073 268.769C439.69 268.887 441.423 269.031 442.134 270.186C442.684 271.08 442.364 272.146 442.792 272.262Z" fill="#1B0109"/>
<path fill-rule="evenodd" clip-rule="evenodd" d="M416.556 267.926C413.31 268.183 411.956 265.175 409.24 265.661C407.582 265.957 406.84 267.298 405.233 269.36C403.656 271.374 398.571 277.484 392.835 279.666C390.142 280.652 387.241 280.912 384.42 280.419C384.78 279.99 388.07 275.783 386.65 271.14C386.196 269.407 385.143 267.897 383.682 266.884C382.014 265.863 381.195 266.592 379.47 265.628C378.473 265.077 377.637 264.271 377.046 263.288C376.455 262.307 376.128 261.187 376.099 260.037C376.151 259.074 376.41 258.135 376.855 257.284C377.301 256.432 377.925 255.688 378.681 255.104C377.423 255.025 376.192 254.692 375.064 254.125C373.936 253.559 372.929 252.767 372.106 251.801C369.4 248.264 370.489 243.193 372.333 240.269C374.176 237.345 375.989 237.941 377.626 235.174C379.905 231.335 377.267 228.678 378.408 224.158C379.925 218.145 387.033 213.155 393.322 212.602C398.38 212.156 400.278 214.968 405.208 213.45C409.039 212.267 408.827 210.293 412.534 209.083C418.297 207.209 424.11 210.26 426.679 211.61C430.492 213.665 433.793 216.571 436.33 220.11C439.868 224.926 439.175 227.051 442.679 230.248C443.413 230.911 444.219 231.487 445.081 231.968C447.909 233.58 450.057 234.544 450.959 235.061C455.569 237.694 456.223 244.898 456.27 245.473C456.495 249.727 455.063 253.899 452.283 257.096C446.713 263.05 436.291 263.406 429.971 263.625C427.172 263.486 424.376 264.001 421.802 265.126C419.03 266.476 418.622 267.764 416.556 267.926Z" fill="#1B0109"/>
<path fill-rule="evenodd" clip-rule="evenodd" d="M415.007 266.201C415.432 265.1 415.621 263.923 415.565 262.742C415.508 261.563 415.204 260.41 414.676 259.356C414.469 258.921 412.34 254.656 408.567 254.669C404.66 254.68 402.533 259.261 402.209 259.958C401.611 261.369 401.298 262.888 401.289 264.424C401.28 265.957 401.575 267.48 402.157 268.898C403.39 272.211 406.547 276.447 409.449 275.923C410.151 275.758 410.8 275.414 411.334 274.922C411.869 274.433 412.272 273.813 412.504 273.121C412.863 271.933 412.207 271.484 412.462 270.113C412.822 268.205 414.153 267.886 415.007 266.201Z" fill="#6C0325"/>
<path fill-rule="evenodd" clip-rule="evenodd" d="M413.682 265.777C413.487 266.944 412.491 267.095 411.765 268.261C410.816 269.8 411.505 271.28 410.867 271.52C410.229 271.76 409.206 270.394 408.964 270.064C407.941 268.698 407.039 266.416 407.81 265.674C408.317 265.182 408.991 265.947 410.611 265.601C412.16 265.271 412.947 264.28 413.452 264.631C413.833 264.891 413.706 265.65 413.682 265.777Z" fill="#360213"/>
<path fill-rule="evenodd" clip-rule="evenodd" d="M406.067 266.034C406.41 266.09 406.509 264.449 407.56 263.965C408.692 263.434 409.612 264.875 411.028 264.478C412.496 264.06 413.064 262.067 413.1 261.931C413.255 261.203 413.228 260.448 413.019 259.733C412.813 259.019 412.43 258.368 411.911 257.842C411.328 257.274 410.611 256.869 409.83 256.663C409.048 256.459 408.227 256.461 407.445 256.67C404.274 257.524 403.28 261.691 403.341 261.725C403.402 261.76 404.419 258.828 406.775 258.142C407.244 258.002 407.738 257.964 408.223 258.03C408.709 258.095 409.176 258.264 409.593 258.523C410.434 259.114 411.136 260.308 410.771 260.961C410.407 261.614 409.316 261.045 407.823 261.882C406.887 262.413 406.189 263.288 405.873 264.325C405.684 265.126 405.814 265.994 406.067 266.034Z" fill="#360213"/>
<path fill-rule="evenodd" clip-rule="evenodd" d="M407.09 271.385C405.859 270.523 404.948 269.269 404.502 267.821C403.864 266.11 403.864 264.223 404.502 262.513C404.473 264.331 404.732 266.141 405.269 267.875C405.774 269.096 406.383 270.27 407.09 271.385Z" fill="#360213"/>
<path fill-rule="evenodd" clip-rule="evenodd" d="M396.195 527.912C396.366 520.002 398.766 512.307 403.113 505.735C410.362 494.51 426.156 482.244 435.845 486.188C451.837 492.702 439.609 538.697 445.641 618.652C446.745 627.976 446.951 637.387 446.261 646.75C445.764 652.928 444.844 659.063 443.509 665.113C434.316 707.873 431.178 780.671 441.221 806.367C443.315 811.551 445.688 816.614 448.328 821.536C453.147 830.576 455.557 835.094 459.828 838.864C467.818 845.915 476.519 846.386 476.215 848.164C475.978 849.505 470.949 849.656 461.776 849.938C457.159 850.138 452.538 850.009 447.94 849.552C445.084 849.383 442.253 848.925 439.485 848.188C428.524 844.519 430.729 831.337 418.739 822.714C411.894 817.786 406.532 818.738 404.723 813.763C402.926 808.829 406.549 803.355 407.584 801.634C422.857 776.215 387.421 713.721 403.573 680.128C404.308 678.6 410.39 666.232 411.745 654.671C412.284 649.611 412.459 644.519 412.265 639.434C412.153 637.079 411.961 635.005 411.756 633.247C408.383 603.821 395.334 564.888 396.195 527.912Z" fill="#6C0325"/>
<path fill-rule="evenodd" clip-rule="evenodd" d="M396.846 462.457C382.843 490.467 381.295 512.495 382.584 527.608C383.73 541.037 386.318 539.687 393.196 573.139C395.818 585.876 399.652 606.538 402.42 632.079C403.879 645.584 404.691 657.207 405.165 666.192C405.203 666.962 405.492 667.697 405.988 668.281C406.482 668.867 407.156 669.269 407.902 669.424C421.725 672.333 436.016 672.08 449.729 668.685C450.225 668.561 450.666 668.276 450.985 667.874C451.307 667.471 451.489 666.975 451.503 666.458C452.459 623.993 453.794 589.823 454.859 566.136C456.254 535.181 457.555 513.938 455.438 483.269C454.225 465.663 452.108 448.133 449.097 430.749L393.004 443.004C394.285 449.489 395.566 455.973 396.846 462.457Z" fill="#00845F"/>
<path fill-rule="evenodd" clip-rule="evenodd" d="M379.366 309.174C376.079 309.776 368.764 312.247 361.501 327.459C349.899 351.781 353.322 377.943 356.894 416.159C362.644 477.794 363.51 496.555 373.026 499.026C380.848 501.053 390.301 490.993 392.623 488.522C404.788 475.567 398.278 464.711 407.605 454.678C421.581 439.637 447.02 451.341 453.71 438.338C456.416 433.078 452.594 430.403 450.825 415.776C447.819 390.847 457.404 386 452.554 372.981C446.916 357.837 433.687 363.701 418.268 342.347C410.541 331.649 409.823 324.575 399.343 316.572C395.248 313.43 387.678 307.644 379.366 309.174Z" fill="#874FCB"/>
<path fill-rule="evenodd" clip-rule="evenodd" d="M365.682 358.386C365.012 358.508 365.765 369.016 368.996 385.085C374.832 414.165 379.058 435.194 392.623 439.648C396.542 440.935 399.925 440.407 405.731 439.503C421.594 437.03 432.815 427.142 432.24 426.08C431.509 424.722 413.699 441.728 398.048 437.11C370.297 428.917 367.409 358.064 365.682 358.386Z" fill="#462D7F"/>
<path fill-rule="evenodd" clip-rule="evenodd" d="M481.75 383.32L481.457 383.025C481.092 382.652 480.887 382.148 480.887 381.624C480.887 381.098 481.092 380.594 481.457 380.221L511.465 349.845C511.833 349.476 512.331 349.268 512.848 349.268C513.366 349.268 513.863 349.476 514.232 349.845L514.523 350.142C514.889 350.513 515.094 351.017 515.094 351.543C515.094 352.067 514.889 352.571 514.523 352.942L484.515 383.32C484.149 383.691 483.651 383.898 483.131 383.898C482.614 383.898 482.116 383.691 481.75 383.32Z" fill="white"/>
<path fill-rule="evenodd" clip-rule="evenodd" d="M476.246 369.642C481.062 367.724 480.675 368.914 484.411 367.137C490.384 364.293 493.063 360.439 494.561 361.372C495.609 362.029 495.327 364.586 494.804 366.134C494.01 368.518 492.517 368.916 489.607 372.399C489.261 372.819 486.125 376.6 486.637 377.162C487.245 377.825 492.655 373.72 494.06 372.65C496.551 370.765 498.479 369.065 499.758 367.888L506.437 361.121C506.534 362.297 506.453 363.479 506.194 364.629C505.544 367.44 504.117 368.632 501.984 372.148C500.913 373.813 500.001 375.574 499.257 377.412C498.502 380.21 497.244 382.843 495.548 385.181C495.377 385.403 495.192 385.614 494.996 385.815C493.807 387.012 491.453 388.333 483.419 390.946C473.964 394.021 471.143 393.932 465.289 397.132C463.709 397.949 462.198 398.894 460.769 399.958C455.673 403.879 447.893 409.665 437.426 417.32C437.777 409.893 435.36 402.604 430.656 396.896C442.484 392.034 451.499 387.989 456.058 385.733C457.882 384.93 459.495 383.707 460.769 382.161C460.911 381.979 461.039 381.797 461.147 381.639C461.353 381.331 461.542 381.011 461.713 380.681C461.866 380.389 465.639 373.865 476.246 369.642Z" fill="#6C0325"/>
<path fill-rule="evenodd" clip-rule="evenodd" d="M335.849 452.611C346.075 495.355 345.512 514.709 342.497 524.255C342.179 525.257 340.506 530.78 338.134 538.513C336.825 542.794 334.945 549.248 331.928 562.369C327.29 584.392 324.149 606.711 322.527 629.169C323.973 641.561 325.276 654.261 326.439 667.27C326.618 669.226 328.476 690.404 329.389 707.165C330.827 735.878 330.645 764.651 328.85 793.342C323.565 795.406 318.018 796.701 312.376 797.194C301.593 798.064 290.772 796.07 280.983 791.41C275.215 718.287 271.181 665.823 268.694 631.833C268.68 631.639 266.942 608.918 264.632 555.46C262.511 506.405 262.732 490.336 264.003 473.672C265.329 456.274 267.638 438.966 270.921 421.835L332.137 433.929C333.373 440.154 334.611 446.383 335.849 452.611Z" fill="#6F6F6E"/>
<path fill-rule="evenodd" clip-rule="evenodd" d="M275.35 258.603C276.653 258.071 277.909 257.427 279.102 256.678C280.786 255.622 280.518 255.506 281.474 255.02C282.672 254.44 283.986 254.139 285.314 254.139C286.643 254.139 287.955 254.44 289.155 255.02C289.317 255.091 289.473 255.175 289.623 255.271C290.607 255.946 292.995 257.58 294.81 265.248C295.301 267.12 295.637 269.033 295.815 270.961C296.386 278.74 292.692 285.598 291.581 287.725C287.65 295.245 283.064 306.707 277.337 323.196L348.167 272.524C343.737 262.256 337.432 248.664 328.92 233.152C316.594 210.692 310.301 199.443 303.902 199.381C288.402 199.23 276.96 251.097 275.35 258.603Z" fill="#6C0325"/>
<path fill-rule="evenodd" clip-rule="evenodd" d="M282.728 245.624C289.56 252.505 294.129 261.354 295.815 270.961C299.292 266.219 302.019 260.961 303.9 255.371C305.464 250.982 306.371 246.384 306.596 241.724C306.713 238.99 306.585 236.247 306.211 233.536C307.307 233.009 308.339 232.355 309.289 231.589C312.547 228.796 314.727 224.932 315.449 220.672C311.577 221.831 307.834 223.398 304.285 225.348C295.563 230.21 288.16 237.174 282.728 245.624Z" fill="#360213"/>
<path fill-rule="evenodd" clip-rule="evenodd" d="M310.967 172.264C315.613 174.769 319.592 178.377 322.562 182.779C325.532 187.181 327.404 192.245 328.021 197.54C328.729 203.826 327.674 210.189 324.977 215.897C324.574 219.555 324.844 223.256 325.771 226.815C326.145 228.23 326.626 229.615 327.209 230.956C321.076 227.595 314.945 224.233 308.812 220.872C305.696 222.959 302.972 225.716 302.464 229.264C302.081 231.937 303.202 233.287 303.105 236.351C302.994 239.899 301.355 242.367 298.793 246.139C294.162 252.458 288.195 257.649 281.327 261.332C279.509 262.395 277.426 262.906 275.329 262.806C274.059 262.702 272.824 262.329 271.707 261.711C270.589 261.094 269.612 260.244 268.839 259.218C267.662 257.314 268.262 255.921 266.722 254.587C265.581 253.604 264.915 254.074 263.642 253.029C262.968 252.602 262.446 251.97 262.149 251.223C261.853 250.477 261.799 249.654 261.993 248.873C262.623 247.199 267.827 245.322 267.799 245.254C267.77 245.187 262.846 246.655 261.1 246.164C260.541 246.084 260.018 245.835 259.599 245.451C259.182 245.069 258.886 244.567 258.751 244.012C258.313 242.154 259.72 241.006 259.069 240.107C258.464 239.264 257.078 240.083 255.693 239.113C254.802 238.409 254.205 237.388 254.027 236.257C253.769 234.694 254.534 234.008 256.572 229.706C257.537 227.97 258.153 226.056 258.381 224.076C258.525 223.168 258.417 222.239 258.074 221.387C257.371 219.964 256.257 220.132 255.251 218.592C254.671 217.651 254.351 216.569 254.324 215.461C253.591 207.818 256.791 198.539 256.791 198.539C257.411 196.579 258.164 194.665 259.044 192.809C262.061 187.104 266.528 182.319 271.982 178.947C277.358 175.332 294.559 163.876 310.967 172.264Z" fill="#6C0325"/>
<path fill-rule="evenodd" clip-rule="evenodd" d="M266.52 235.758C266.707 236.18 266.752 236.653 266.648 237.103C266.407 237.683 265.97 238.158 265.415 238.442C264.782 238.728 264.084 238.822 263.401 238.715C263.225 238.702 263.05 238.673 262.881 238.626C261.951 238.364 261.695 237.716 261.171 237.437C260.111 236.873 258.199 237.918 258.251 238.436C258.276 238.693 259.509 239.066 262.024 239.261C263.101 239.434 264.2 239.339 265.232 238.982C265.451 238.888 266.75 238.318 266.998 237.297C267.061 237.021 267.05 236.731 266.966 236.462C266.883 236.191 266.729 235.947 266.52 235.758Z" fill="#360213"/>
<path fill-rule="evenodd" clip-rule="evenodd" d="M262.739 223.319C262.181 222.353 261.719 221.332 261.359 220.273C261.101 219.671 260.95 219.027 260.914 218.37C261.094 218.308 262.195 222.32 263.453 222.255C263.53 222.255 263.62 222.231 264.455 221.596C265.381 220.892 265.97 220.384 265.977 220.397C265.985 220.41 264.711 221.556 263.76 222.399L262.739 223.319Z" fill="#893551"/>
<path fill-rule="evenodd" clip-rule="evenodd" d="M264.637 221.232C264.04 221.718 263.401 222.144 262.725 222.506C262.296 222.73 261.837 222.888 261.363 222.979C260.459 223.11 259.537 222.95 258.729 222.522C259.236 222.974 259.83 223.31 260.477 223.51C261.122 223.709 261.803 223.765 262.472 223.676L262.571 223.654C262.368 224.382 262.432 224.608 262.535 224.675C263.004 224.972 264.987 222.477 265.296 222.091C265.605 221.705 266.8 220.201 266.614 220.017C266.5 219.9 265.882 220.346 264.637 221.232Z" fill="#1B0109"/>
<path fill-rule="evenodd" clip-rule="evenodd" d="M271.179 215.228C271.47 214.5 266.008 212.107 264.227 211.421C263.487 211.103 262.675 210.99 261.877 211.092C261.209 211.207 260.574 211.47 260.019 211.862C257.476 213.486 255.965 214.445 256.066 215.808C256.159 216.421 256.445 216.989 256.88 217.426C257.316 217.864 257.877 218.15 258.484 218.241C259.78 218.279 260.017 216.438 261.503 215.271C264.883 212.613 270.867 216.01 271.179 215.228Z" fill="#1B0109"/>
<path fill-rule="evenodd" clip-rule="evenodd" d="M262.572 188.518C261.575 187.528 260.944 186.222 260.786 184.817C260.317 177.805 275.587 170.091 288.117 168.055C293.867 167.124 307.857 164.847 319.296 173.903C328.593 181.258 335.367 195.442 332.593 206.798C331.204 212.489 326.918 219.515 328.46 230.099C328.64 231.36 328.866 232.381 329.024 233.04C322.795 233.62 319.054 232.07 316.723 230.35C311.23 226.311 310.362 218.991 306.54 218.991C305.41 218.991 305.462 219.631 302.319 221.232C298.726 223.052 295.942 224.418 293.558 223.57C290.808 222.595 291.371 219.642 287.874 217.444C285.123 215.721 283.804 216.936 281.838 215.837C276.198 212.679 281.684 199.61 275.855 192.78C273.97 190.576 270.331 188.311 262.572 188.518Z" fill="#1B0109"/>
<path fill-rule="evenodd" clip-rule="evenodd" d="M296.343 210.017C297.408 207.469 300.258 203.477 304.15 203.617C308.63 203.774 311.429 209.169 311.62 209.554C311.697 209.711 311.756 209.833 311.8 209.918C313.12 213.375 313.147 217.202 311.875 220.677C311.451 222.084 308.894 230.576 304.621 230.743C303.958 230.763 303.3 230.629 302.698 230.348C302.096 230.068 301.566 229.652 301.151 229.129C300.409 228.076 300.652 227.155 300.384 225.727C299.872 222.981 298.132 222.373 296.808 220.086C295.996 218.549 295.532 216.847 295.452 215.104C295.371 213.363 295.676 211.625 296.343 210.017Z" fill="#6C0325"/>
<path fill-rule="evenodd" clip-rule="evenodd" d="M298.016 217.036C298.253 218.443 299.453 218.61 300.321 220.006C301.466 221.853 300.643 223.645 301.399 223.916C302.156 224.187 303.388 222.544 303.681 222.148C304.907 220.49 305.988 217.733 305.063 216.853C304.452 216.267 303.645 217.193 301.696 216.798C299.834 216.412 298.891 215.224 298.282 215.654C297.836 215.977 297.989 216.887 298.016 217.036Z" fill="#360213"/>
<path fill-rule="evenodd" clip-rule="evenodd" d="M307.174 217.271C306.763 217.344 306.635 215.368 305.377 214.787C304.012 214.163 302.912 215.916 301.211 215.446C299.448 214.955 298.761 212.562 298.716 212.406C298.531 211.527 298.564 210.617 298.813 209.755C299.061 208.892 299.518 208.106 300.141 207.467C300.839 206.781 301.696 206.286 302.635 206.032C303.573 205.777 304.562 205.77 305.503 206.012C309.314 207.003 310.513 212.016 310.441 212.049C310.369 212.082 309.149 208.572 306.308 207.78C305.742 207.617 305.149 207.573 304.567 207.657C303.985 207.738 303.426 207.944 302.927 208.259C301.915 208.987 301.074 210.424 301.512 211.207C301.951 211.989 303.261 211.296 305.054 212.298C306.177 212.924 307.014 213.969 307.39 215.21C307.625 216.167 307.469 217.229 307.174 217.271Z" fill="#360213"/>
<path fill-rule="evenodd" clip-rule="evenodd" d="M306.026 223.114C307.113 222.584 308.064 221.806 308.804 220.841C309.544 219.877 310.055 218.752 310.294 217.555C310.434 216.784 310.421 215.992 310.258 215.226C310.093 214.46 309.778 213.734 309.334 213.092C309.613 214.716 309.613 216.38 309.334 218.004C308.729 219.99 307.582 221.76 306.026 223.114Z" fill="#360213"/>
<path fill-rule="evenodd" clip-rule="evenodd" d="M367.861 323.674C366.997 318.774 364.875 305.153 352.947 282.656C343.053 264.001 338.572 261.913 336.775 261.218C329.512 258.361 322.319 260.826 319.069 261.993C305.17 266.982 297.424 280.982 282.499 308.77C279.83 313.741 264.841 342.027 265.946 358.275C265.993 358.949 266.305 363.032 266.566 368.705C266.977 377.408 266.954 383.08 266.958 385.571C266.958 387.552 266.925 389.743 266.83 392.39C266.305 406.765 264.659 415.557 262.381 431.329C261.326 438.617 258.667 442.491 260.045 448.557C260.866 451.869 262.354 454.973 264.413 457.677C276.159 472.415 301.695 456.949 328.698 471.709C334.493 474.875 338.391 478.078 342.175 476.387C348.437 473.587 347.359 460.302 347.756 446.563C348.503 420.676 354.279 400.504 359.112 383.606C359.1 383.615 371.865 346.397 367.861 323.674Z" fill="#EE8900"/>
<path fill-rule="evenodd" clip-rule="evenodd" d="M216.42 367.941L217.208 367.142C217.575 366.769 217.78 366.265 217.78 365.739C217.78 365.215 217.575 364.711 217.208 364.338L182.843 329.535C182.475 329.166 181.977 328.958 181.458 328.958C180.94 328.958 180.443 329.166 180.074 329.535L179.285 330.338C178.919 330.709 178.714 331.213 178.714 331.739C178.714 332.264 178.919 332.768 179.285 333.14L213.652 367.941C214.021 368.31 214.517 368.518 215.036 368.518C215.554 368.518 216.051 368.31 216.42 367.941Z" fill="#1B0109"/>
<path fill-rule="evenodd" clip-rule="evenodd" d="M221.923 354.076C217.108 351.938 217.489 353.261 213.757 351.284C207.782 348.117 205.101 343.824 203.61 344.858C202.562 345.586 202.844 348.44 203.362 350.164C204.16 352.826 205.651 353.266 208.56 357.149C208.919 357.617 212.041 361.829 211.529 362.455C210.927 363.195 205.514 358.621 204.106 357.427C201.647 355.351 199.987 353.69 198.413 352.121C196.291 350.013 193.159 346.916 189.188 343.076C189.386 345.269 190.041 347.394 191.112 349.31C192.327 351.441 194.706 354.316 196.185 356.869C196.473 357.367 196.744 357.87 196.744 357.87C197.163 358.648 197.689 359.689 198.224 360.963C198.456 361.509 198.683 362.093 198.907 362.728C199.985 365.776 200.411 368.394 202.62 371.385C202.79 371.631 202.974 371.867 203.169 372.091C206.355 375.659 214.747 377.81 214.747 377.81C220.712 379.431 226.381 382.019 231.53 385.476C232.352 386.044 232.911 386.47 233.175 386.668C237.581 389.97 246.747 396.184 266.56 408.556L269.255 379.71C254.839 376.558 244.514 373.289 242.111 372.008C240.359 370.918 238.773 369.577 237.4 368.026C237.256 367.823 237.13 367.628 237.021 367.448C236.812 367.102 236.624 366.745 236.457 366.38C236.302 366.052 232.53 358.792 221.923 354.076Z" fill="#6C0325"/>
<path fill-rule="evenodd" clip-rule="evenodd" d="M242.464 393.75L248.238 374.644C258.843 377.077 269.621 379.677 280.572 382.441C293.057 385.594 305.247 388.842 317.143 392.185C311.292 353.361 318.113 323.587 328.305 318.128C332.876 315.794 337.835 314.338 342.931 313.838C345.549 313.656 351.944 313.208 355.635 315.401C362.927 319.726 360.983 335.127 357.56 359.838C349.979 414.587 347.184 428.118 336.389 432.341C333.771 433.156 331.041 433.551 328.303 433.509C316.368 434.224 303.819 431.34 277.491 416.358C265.412 409.48 253.72 401.932 242.464 393.75Z" fill="#EE8900"/>
<path fill-rule="evenodd" clip-rule="evenodd" d="M356.251 335.667C356.745 335.751 354.862 354.865 350.301 374.908C343.532 404.672 337.766 430.019 321.362 435.088C314.77 437.126 308.556 435.241 301.552 433.116C290.205 429.539 280.165 422.619 272.719 413.239C299.146 433.121 313.932 428.354 317.546 426.933C338.729 418.601 346.946 379.34 353.555 347.753C354.587 342.825 355.934 335.616 356.251 335.667Z" fill="#DE6D00"/>
<path fill-rule="evenodd" clip-rule="evenodd" d="M194.494 251C193.021 249.399 191.846 247.541 191.026 245.516L191.053 245.47C197.145 237.821 200.174 228.131 199.54 218.328C198.906 208.522 194.656 199.315 187.632 192.535C180.61 185.754 171.325 181.894 161.622 181.721C151.921 181.549 142.509 185.077 135.253 191.602C127.999 198.128 123.431 207.177 122.459 216.954C121.485 226.732 124.175 236.521 129.997 244.384C135.819 252.244 144.347 257.603 153.888 259.395C163.43 261.188 173.287 259.282 181.506 254.058L181.539 254.048C186.868 257.166 193.017 258.544 199.148 257.992C201.188 257.772 203.196 257.325 205.137 256.653C201.076 255.993 197.339 254.008 194.494 251Z" stroke="#E196AA" stroke-width="0.48" stroke-miterlimit="22.926"/>
<path fill-rule="evenodd" clip-rule="evenodd" d="M148.65 205.769H152.734L158.757 216.057H167.161V205.769H171.243V216.057H174.62V220.193H171.243V223.801H174.62V227.937H171.243V238.225H167.159L161.136 227.937H152.732V238.225H148.65V227.937H145.279V223.801H148.653V220.193H145.279V216.057H148.653V205.769H148.65ZM161.177 220.193L163.291 223.801H167.161V220.193H161.177ZM156.603 220.193H152.732V223.801H158.716L156.603 220.193ZM152.732 216.057H154.18L152.732 213.584V216.057ZM165.711 227.937L167.161 230.411V227.937H165.711Z" fill="#E196AA"/>
</g>
<path d="M100.246 280.035L90.3084 277.322C89.1582 277.013 88.3577 276.009 88.3577 274.893C88.3577 273.494 89.5723 272.361 91.0721 272.361H97.1726C98.2952 272.361 99.3993 272.678 100.319 273.262C100.881 273.614 101.635 273.528 102.114 273.09L105.316 270.172C105.969 269.579 105.877 268.592 105.15 268.069C102.896 266.421 100.08 265.502 97.191 265.494V261.373C97.191 260.618 96.5285 260 95.7188 260H92.7744C91.9646 260 91.3021 260.618 91.3021 261.373V265.494H91.0721C85.2109 265.494 80.4998 270.189 81.0427 275.76C81.4291 279.717 84.668 282.936 88.7534 284.052L98.1847 286.627C99.3349 286.944 100.135 287.94 100.135 289.056C100.135 290.455 98.9209 291.588 97.421 291.588H91.3205C90.198 291.588 89.0938 291.271 88.1737 290.687C87.6124 290.335 86.8579 290.421 86.3794 290.859L83.1774 293.777C82.5241 294.369 82.6161 295.357 83.343 295.88C85.5973 297.528 88.4129 298.447 91.3021 298.455V302.575C91.3021 303.331 91.9646 303.949 92.7744 303.949H95.7188C96.5285 303.949 97.191 303.331 97.191 302.575V298.438C101.479 298.361 105.5 295.983 106.917 292.198C108.895 286.91 105.573 281.485 100.246 280.035Z" fill="#E196AA"/>
<defs>
<clipPath id="clip0_131461_26613">
<rect width="1380" height="595" fill="white"/>
</clipPath>
</defs>
</svg>
